<?xml version="1.0" encoding="UTF-8"?>
<svg version="1.1" xmlns="http://www.w3.org/2000/svg" width="83" height="107">
<path d="M0 0 C0.74664413 -0.00350464 1.49328827 -0.00700928 2.26255798 -0.01062012 C4.73177373 -0.01942602 7.20070319 -0.01359238 9.66992188 -0.00683594 C11.38480688 -0.00818292 13.0996915 -0.01012373 14.8145752 -0.01263428 C18.40913528 -0.01558399 22.00359599 -0.01129281 25.59814453 -0.00195312 C30.20852824 0.00944134 34.8186791 0.00288105 39.42905426 -0.00909805 C42.97033446 -0.01632078 46.51155934 -0.01402683 50.05284119 -0.00884247 C51.75292488 -0.00750711 53.45301358 -0.0091497 55.15309143 -0.01380157 C57.52797779 -0.01887359 59.90248563 -0.01114724 62.27734375 0 C63.33410561 -0.00607269 63.33410561 -0.00607269 64.41221619 -0.01226807 C68.05181207 0.01942365 69.51953665 0.17936558 72.63867188 2.25878906 C73.01367188 5.75878906 73.01367188 5.75878906 72.63867188 9.25878906 C69.03514632 11.66113943 66.43816081 11.5414883 62.27734375 11.51757812 C61.53069962 11.52108276 60.78405548 11.5245874 60.01478577 11.52819824 C57.54557002 11.53700414 55.07664056 11.53117051 52.60742188 11.52441406 C50.89253687 11.52576104 49.17765225 11.52770185 47.46276855 11.5302124 C43.86820847 11.53316211 40.27374776 11.52887094 36.67919922 11.51953125 C32.06881551 11.50813678 27.45866465 11.51469707 22.84828949 11.52667618 C19.30700929 11.5338989 15.76578441 11.53160495 12.22450256 11.52642059 C10.52441887 11.52508524 8.82433017 11.52672783 7.12425232 11.5313797 C4.74936596 11.53645172 2.37485812 11.52872536 0 11.51757812 C-1.05676186 11.52365082 -1.05676186 11.52365082 -2.13487244 11.52984619 C-5.77446832 11.49815447 -7.2421929 11.33821254 -10.36132812 9.25878906 C-10.73632812 5.75878906 -10.73632812 5.75878906 -10.36132812 2.25878906 C-6.75780257 -0.14356131 -4.16081706 -0.02391018 0 0 Z " fill="#020202" transform="translate(10.361328125,47.7412109375)"/>
<path d="M0 0 C1.09070549 -0.00262848 1.09070549 -0.00262848 2.20344543 -0.00531006 C4.60765976 -0.00971225 7.01180055 -0.00679632 9.41601562 -0.00341797 C11.08605971 -0.00409148 12.75610371 -0.0050619 14.42614746 -0.00631714 C17.92652316 -0.0077919 21.42687335 -0.00564666 24.92724609 -0.00097656 C29.41650168 0.00472059 33.90569748 0.00144041 38.39495087 -0.00454903 C41.84357149 -0.00816061 45.29217791 -0.0070133 48.74079895 -0.00442123 C50.39622505 -0.00375362 52.05165243 -0.00457462 53.70707703 -0.00690079 C56.01959657 -0.00943707 58.33201895 -0.0055729 60.64453125 0 C61.96118774 0.00079559 63.27784424 0.00159119 64.63439941 0.00241089 C67.82226562 0.12939453 67.82226562 0.12939453 70.82226562 1.12939453 C72.2035158 3.89189489 72.01305869 6.07670553 71.82226562 9.12939453 C69.35339345 11.59826671 67.95184976 11.37185657 64.5821991 11.40045166 C63.48963554 11.39437897 63.48963554 11.39437897 62.375 11.38818359 C61.60738846 11.39168823 60.83977692 11.39519287 60.04890442 11.39880371 C57.50451691 11.40762621 54.9604061 11.40177013 52.41601562 11.39501953 C50.65246528 11.39636603 48.88891529 11.39830644 47.12536621 11.40081787 C43.42647778 11.40376983 39.72768583 11.39946919 36.02880859 11.39013672 C31.28041657 11.37874212 26.53225061 11.38530121 21.78386688 11.39728165 C18.14140104 11.40449831 14.49898905 11.40221322 10.85652161 11.39702606 C9.10537184 11.39568903 7.35421723 11.39733916 5.60307312 11.40198517 C3.15842681 11.40704726 0.71414994 11.39934484 -1.73046875 11.38818359 C-2.45884445 11.39223206 -3.18722015 11.39628052 -3.93766785 11.40045166 C-8.94920551 11.3579234 -8.94920551 11.3579234 -11.17773438 9.12939453 C-11.51106771 3.7960612 -11.51106771 3.7960612 -10.17773438 1.12939453 C-6.61153519 -0.05933853 -3.76553116 0.00227533 0 0 Z " fill="#1C1C1C" transform="translate(11.177734375,70.87060546875)"/>
<path d="M0 0 C1.09256355 0.00607269 1.09256355 0.00607269 2.2071991 0.01226807 C2.97481064 0.00876343 3.74242218 0.00525879 4.53329468 0.00164795 C7.07768219 -0.00717455 9.621793 -0.00131847 12.16618347 0.00543213 C13.92973382 0.00408563 15.69328381 0.00214522 17.45683289 -0.00036621 C21.15572132 -0.00331817 24.85451327 0.00098247 28.5533905 0.01031494 C33.30178253 0.02170954 38.04994849 0.01515045 42.79833221 0.00317001 C46.44079806 -0.00404665 50.08321005 -0.00176156 53.72567749 0.0034256 C55.47682726 0.00476263 57.22798186 0.0031125 58.97912598 -0.00153351 C61.42377228 -0.0065956 63.86804916 0.00110682 66.31266785 0.01226807 C67.04104355 0.0082196 67.76941925 0.00417114 68.51986694 0 C73.5314046 0.04252826 73.5314046 0.04252826 75.75993347 2.27105713 C76.09326681 7.60439046 76.09326681 7.60439046 74.75993347 10.27105713 C70.56385825 11.69903401 66.2204816 11.39801306 61.84196472 11.36480713 C60.92985733 11.36122192 60.01774994 11.35763672 59.07800293 11.35394287 C46.19971789 11.28177203 33.32328988 11.0174138 20.44743347 10.77105713 C17.84522322 10.72270278 15.24300968 10.67452461 12.64079285 10.62652588 C6.34713391 10.51006145 0.05351853 10.39144462 -6.24006653 10.27105713 C-7.62131671 7.50855677 -7.43085959 5.32374613 -7.24006653 2.27105713 C-4.77119435 -0.19781505 -3.36965066 0.02859509 0 0 Z " fill="#0C0C0C" transform="translate(7.2400665283203125,24.72894287109375)"/>
<path d="M0 0 C9.98772117 -0.0463024 19.97541689 -0.08185853 29.96322346 -0.10362434 C34.60076496 -0.11406985 39.23823313 -0.12824303 43.87573242 -0.15087891 C48.34961355 -0.17257995 52.82342406 -0.18456285 57.29735374 -0.18975449 C59.00582173 -0.19345517 60.71428578 -0.20068152 62.42272377 -0.21146011 C64.81225621 -0.22593871 67.20149534 -0.22797948 69.59106445 -0.22705078 C70.65489601 -0.23783661 70.65489601 -0.23783661 71.74021912 -0.24884033 C75.39606891 -0.23342481 76.86722567 -0.08851622 80 2 C80.375 5.5 80.375 5.5 80 9 C76.38038388 11.41307741 73.76926629 11.26941215 69.59106445 11.22705078 C68.83960144 11.22734283 68.08813843 11.22763489 67.31390381 11.22793579 C64.83024547 11.22654253 62.34688718 11.21098166 59.86328125 11.1953125 C58.14121159 11.19158235 56.4191398 11.18873539 54.69706726 11.18673706 C50.16456238 11.17910073 45.63218568 11.15945225 41.09973145 11.1373291 C36.47470839 11.11687067 31.84966463 11.10773535 27.22460938 11.09765625 C18.14968327 11.07620635 9.07485229 11.0420704 0 11 C0 10.67 0 10.34 0 10 C15.51 9.67 31.02 9.34 47 9 C47 7.35 47 5.7 47 4 C49.31 4.66 51.62 5.32 54 6 C53.505 4.02 53.505 4.02 53 2 C35.51 1.67 18.02 1.34 0 1 C0 0.67 0 0.34 0 0 Z " fill="#737373" transform="translate(3,48)"/>
<path d="M0 0 C1.53333984 -0.00193359 1.53333984 -0.00193359 3.09765625 -0.00390625 C4.16886719 -0.00003906 5.24007812 0.00382812 6.34375 0.0078125 C7.95056641 0.00201172 7.95056641 0.00201172 9.58984375 -0.00390625 C11.12318359 -0.00197266 11.12318359 -0.00197266 12.6875 0 C13.62787109 0.00112793 14.56824219 0.00225586 15.53710938 0.00341797 C17.84375 0.1328125 17.84375 0.1328125 19.84375 1.1328125 C19.4531635 6.16502 17.18987491 8.20293543 13.53125 11.5078125 C12.56574219 12.40242188 11.60023437 13.29703125 10.60546875 14.21875 C7.84375 16.1328125 7.84375 16.1328125 5.84765625 16.22265625 C2.89417723 14.61637818 0.58628153 12.57216308 -1.90625 10.3203125 C-2.89109375 9.44761719 -3.8759375 8.57492188 -4.890625 7.67578125 C-7.15625 5.1328125 -7.15625 5.1328125 -7.15625 1.1328125 C-4.62178127 -0.13442187 -2.83398046 0.00339922 0 0 Z " fill="#252525" transform="translate(35.15625,90.8671875)"/>
<path d="M0 0 C2.95347902 1.60627807 5.26137472 3.65049317 7.75390625 5.90234375 C9.23117188 7.21138672 9.23117188 7.21138672 10.73828125 8.546875 C13.00390625 11.08984375 13.00390625 11.08984375 13.00390625 15.08984375 C10.46943752 16.35707812 8.68163671 16.21925703 5.84765625 16.22265625 C4.82542969 16.22394531 3.80320312 16.22523437 2.75 16.2265625 C1.67878906 16.22269531 0.60757813 16.21882813 -0.49609375 16.21484375 C-2.10291016 16.22064453 -2.10291016 16.22064453 -3.7421875 16.2265625 C-4.76441406 16.22527344 -5.78664063 16.22398438 -6.83984375 16.22265625 C-7.78021484 16.22152832 -8.72058594 16.22040039 -9.68945312 16.21923828 C-11.99609375 16.08984375 -11.99609375 16.08984375 -13.99609375 15.08984375 C-13.60550725 10.05763625 -11.34221866 8.01972082 -7.68359375 4.71484375 C-6.71808594 3.82023438 -5.75257812 2.925625 -4.7578125 2.00390625 C-1.99609375 0.08984375 -1.99609375 0.08984375 0 0 Z " fill="#252525" transform="translate(41.99609375,-0.08984375)"/>
<path d="M0 0 C3.47914941 -0.02887814 6.95826831 -0.04675687 10.4375 -0.0625 C11.92733398 -0.07506836 11.92733398 -0.07506836 13.44726562 -0.08789062 C14.39150391 -0.09111328 15.33574219 -0.09433594 16.30859375 -0.09765625 C17.62041626 -0.10551147 17.62041626 -0.10551147 18.95874023 -0.11352539 C21 0 21 0 22 1 C22.125 4.5 22.125 4.5 22 8 C21 9 21 9 17.83984375 9.09765625 C15.90818359 9.08025391 15.90818359 9.08025391 13.9375 9.0625 C12.64714844 9.05347656 11.35679688 9.04445313 10.02734375 9.03515625 C9.02832031 9.02355469 8.02929688 9.01195312 7 9 C7.66 8.67 8.32 8.34 9 8 C9 7.01 9 6.02 9 5 C5.37 5 1.74 5 -2 5 C-1.01 4.01 -0.02 3.02 1 2 C0.67 1.34 0.34 0.68 0 0 Z " fill="#0B0B0B" transform="translate(61,49)"/>
<path d="M0 0 C0 0.66 0 1.32 0 2 C0.928125 1.62875 1.85625 1.2575 2.8125 0.875 C3.864375 0.58625 4.91625 0.2975 6 0 C6.99 0.66 7.98 1.32 9 2 C9.99 1.34 10.98 0.68 12 0 C14.1875 0.375 14.1875 0.375 16 1 C16.33 2.32 16.66 3.64 17 5 C13.87501937 5.02895976 10.7500731 5.04678483 7.625 5.0625 C6.73554688 5.07087891 5.84609375 5.07925781 4.9296875 5.08789062 C3.65351563 5.09272461 3.65351563 5.09272461 2.3515625 5.09765625 C1.17327881 5.10551147 1.17327881 5.10551147 -0.02880859 5.11352539 C-2 5 -2 5 -4 4 C-4 3.01 -4 2.02 -4 1 C-2 0 -2 0 0 0 Z " fill="#0A0A0A" transform="translate(12,53)"/>
<path d="M0 0 C4.70588235 0.70588235 4.70588235 0.70588235 6 2 C6.04080783 3.99958364 6.04254356 6.00045254 6 8 C4.0085944 8.38133299 2.00720923 8.71325582 0 9 C-1 8 -1 8 -1.125 4.5 C-1 1 -1 1 0 0 Z " fill="#0D0D0D" transform="translate(1,49)"/>
<path d="M0 0 C2.31 0 4.62 0 7 0 C7.33 0.66 7.66 1.32 8 2 C7.34 2.66 6.68 3.32 6 4 C5.01 3.34 4.02 2.68 3 2 C2.67 2.66 2.34 3.32 2 4 C1.01 4.495 1.01 4.495 0 5 C-0.66 4.67 -1.32 4.34 -2 4 C-1.34 2.68 -0.68 1.36 0 0 Z " fill="#181818" transform="translate(32,53)"/>
<path d="M0 0 C0.66 0.33 1.32 0.66 2 1 C1.34 2.65 0.68 4.3 0 6 C2.33075929 5.04134491 2.33075929 5.04134491 4 2 C4 3.98 4 5.96 4 8 C2.0625 8.5625 2.0625 8.5625 0 9 C-1 8 -1 8 -1.125 4.5 C-1 1 -1 1 0 0 Z " fill="#3A3A3A" transform="translate(1,49)"/>
<path d="M0 0 C0.33 1.32 0.66 2.64 1 4 C-1.64 3.67 -4.28 3.34 -7 3 C-6.67 2.01 -6.34 1.02 -6 0 C-3.50907189 -1.24546405 -2.58919267 -0.7767578 0 0 Z " fill="#171717" transform="translate(28,54)"/>
<path d="M0 0 C-0.7425 0.6496875 -0.7425 0.6496875 -1.5 1.3125 C-3.33218192 2.99740483 -3.33218192 2.99740483 -3 6 C-3.66 6 -4.32 6 -5 6 C-5.66 3.69 -6.32 1.38 -7 -1 C-3.51418144 -2.2020064 -3.32007656 -2.21338437 0 0 Z " fill="#202020" transform="translate(63,51)"/>
<path d="M0 0 C0 0.99 0 1.98 0 3 C-2.31 3 -4.62 3 -7 3 C-6.67 2.01 -6.34 1.02 -6 0 C-3.50907189 -1.24546405 -2.58919267 -0.7767578 0 0 Z " fill="#1B1B1B" transform="translate(20,54)"/>
<path d="M0 0 C2 0 4 0 6 0 C6 0.99 6 1.98 6 3 C3.36 3 0.72 3 -2 3 C-1 1 -1 1 0 0 Z " fill="#0A0A0A" transform="translate(35,55)"/>
<path d="M0 0 C0.66 0.33 1.32 0.66 2 1 C2.66 1 3.32 1 4 1 C3.67 2.32 3.34 3.64 3 5 C0.03 4.505 0.03 4.505 -3 4 C-2.01 2.68 -1.02 1.36 0 0 Z " fill="#1B1B1B" transform="translate(76,53)"/>
</svg>
