<svg width="176" height="43" viewBox="0 0 176 43" fill="none" xmlns="http://www.w3.org/2000/svg">
<g clip-path="url(#clip0_768_12596)">
<path d="M1.37695 18.2234C1.37695 16.9139 1.62942 15.6773 2.13242 14.5245C2.63104 13.3497 3.30284 12.3467 4.18771 11.4789C5.06187 10.5896 6.06592 9.92127 7.23342 9.41586C8.37416 8.91093 9.62874 8.66431 10.967 8.66431C12.2785 8.66431 13.5311 8.91093 14.6519 9.41586C15.8437 9.92127 16.8463 10.5896 17.7215 11.4789C18.6029 12.3467 19.3083 13.3497 19.8118 14.5245C20.3133 15.6773 20.5658 16.9139 20.5658 18.2234V33.3415C20.5658 34.6466 20.3133 35.8646 19.8118 37.053C19.3083 38.2341 18.6029 39.2313 17.7215 40.0894C16.8463 40.9411 15.8437 41.6426 14.6519 42.1441C13.5311 42.6442 12.2785 42.8626 10.967 42.8626C10.1848 42.8626 9.51637 42.596 9.01045 42.0979C8.45832 41.558 8.2078 40.8896 8.2078 40.0894C8.2078 39.3291 8.45832 38.6972 9.01045 38.1611C9.51637 37.608 10.1848 37.3575 10.967 37.3575C11.9754 37.3575 12.8642 36.9878 13.6493 36.3175C14.4048 35.601 14.8723 34.7473 14.9535 33.7564C13.7364 34.3615 12.3918 34.6806 10.967 34.6806C9.68274 34.6806 8.42768 34.4277 7.23342 33.9276C6.06592 33.4251 5.06187 32.7553 4.18771 31.8646C3.30284 30.9949 2.63104 29.9938 2.13242 28.8181C1.62942 27.6632 1.37695 26.4248 1.37695 25.1206V18.2234ZM6.89922 25.1206C6.89922 25.6742 7.03592 26.1728 7.23342 26.6758C7.45719 27.1607 7.74031 27.583 8.12413 27.9269C8.50794 28.316 8.92727 28.5826 9.43075 28.8035C9.93375 28.983 10.4333 29.1012 10.967 29.1012C12.0581 29.1012 12.978 28.7324 13.7364 28.0149C14.5366 27.279 14.9039 26.3946 14.991 25.3385V18.2234C14.991 17.1187 14.6222 16.1667 13.8157 15.4078C13.032 14.6407 12.1077 14.2345 10.967 14.2345C9.79657 14.2345 8.8436 14.6407 8.07256 15.4078C7.2879 16.1667 6.89922 17.1187 6.89922 18.2234V25.1206Z" fill="#14377D"/>
<path d="M24.2662 11.6606C24.2662 10.8516 24.5168 10.2022 25.0528 9.66762C25.5986 9.14859 26.27 8.86499 27.0619 8.86499C27.7789 8.86499 28.4016 9.14859 28.9489 9.66762C29.5054 10.2022 29.7895 10.8516 29.7895 11.6606V25.117C29.7895 26.2217 30.1723 27.1771 30.9614 27.9301C31.7621 28.703 32.7209 29.1014 33.8587 29.1014C34.3967 29.1014 34.9489 28.9852 35.447 28.8032C35.9539 28.5829 36.3703 28.3178 36.703 27.9301C37.0912 27.5833 37.3714 27.161 37.5932 26.676C37.8413 26.1731 37.9245 25.6701 37.9245 25.117V11.6606C37.9245 10.8516 38.2091 10.2022 38.7622 9.66762C39.2681 9.14859 39.937 8.86499 40.6881 8.86499C41.4436 8.86499 42.1119 9.14859 42.6495 9.66762C43.2011 10.2022 43.4531 10.8516 43.4531 11.6606V25.117C43.4531 26.425 43.2011 27.6664 42.6976 28.8227C42.1956 29.9945 41.5272 30.9966 40.6385 31.8669C39.7682 32.7556 38.7622 33.4254 37.5932 33.9279C36.4 34.4294 35.1444 34.678 33.8587 34.678C32.519 34.678 31.2649 34.4294 30.1261 33.9279C28.9489 33.4254 27.9463 32.7556 27.0619 31.8669C26.1892 30.9966 25.5198 29.9945 25.0183 28.8227C24.5168 27.6664 24.2662 26.425 24.2662 25.117V11.6606Z" fill="#14377D"/>
<path d="M47.1339 18.2234C47.1339 16.9139 47.3859 15.6773 47.8505 14.5245C48.3583 13.3497 49.0642 12.3467 49.9486 11.4789C50.8198 10.5896 51.8384 9.92127 52.9636 9.41586C54.1336 8.91093 55.3872 8.66431 56.7269 8.66431C58.0354 8.66431 59.2895 8.91093 60.4609 9.41586C61.6007 9.92127 62.6422 10.5896 63.5246 11.4789C64.3949 12.3467 65.0662 13.3497 65.5823 14.5245C66.0873 15.6773 66.3373 16.9139 66.3373 18.2234V31.6691C66.3373 32.4844 66.0391 33.1386 65.5021 33.6771C64.9465 34.1971 64.3107 34.4788 63.6039 34.4788C63.2284 34.4788 62.8081 34.3615 62.4364 34.1597C62.0555 33.9422 61.6887 33.7248 61.4353 33.4884C59.9268 34.2808 58.3725 34.6806 56.7269 34.6806C55.4421 34.6806 54.1837 34.4277 53.0118 33.9276C51.8384 33.4251 50.8198 32.7553 49.9486 31.8646C49.0642 30.9949 48.3583 29.9938 47.8505 28.8181C47.3859 27.6632 47.1339 26.4248 47.1339 25.1206V18.2234ZM52.7107 25.1206C52.7107 26.2214 53.0945 27.1783 53.8825 27.9269C54.6852 28.7028 55.6061 29.1012 56.7269 29.1012C57.8165 29.1012 58.786 28.7324 59.541 28.0149C60.2984 27.279 60.7659 26.3946 60.799 25.3385V18.2234C60.799 17.6683 60.6808 17.1522 60.4609 16.6643C60.2581 16.1798 59.9603 15.761 59.5897 15.4078C59.2584 15.025 58.786 14.738 58.2826 14.5245C57.7771 14.3382 57.2795 14.2345 56.7269 14.2345C55.6061 14.2345 54.637 14.6407 53.8514 15.4078C53.0945 16.1667 52.7107 17.1187 52.7107 18.2234V25.1206Z" fill="#14377D"/>
<path d="M70.3043 11.6603C70.3043 10.8513 70.6084 10.2019 71.1104 9.66735C71.6455 9.14832 72.2842 8.86472 73.0873 8.86472C73.9236 8.86472 74.6236 9.19599 75.2107 9.92127C76.6886 9.08167 78.3139 8.66431 80.086 8.66431C81.3732 8.8151 82.4269 8.99752 83.2193 9.23393C83.9699 9.4504 84.6899 9.85317 85.3592 10.3678C85.9765 10.8718 86.3136 11.5752 86.3136 12.4308C86.3136 13.269 86.0612 13.9184 85.5309 14.4374C84.9725 14.9399 84.3498 15.2264 83.5506 15.2264C82.9629 15.2264 82.4269 15.025 81.8762 14.6899C81.5906 14.5245 81.2569 14.4067 80.9539 14.3382C80.6722 14.2715 80.2855 14.2345 79.9167 14.2345C78.7765 14.2345 77.8561 14.6052 77.104 15.3412C76.3019 16.0801 75.9317 16.9961 75.8495 18.0361V31.6691C75.8495 32.4844 75.5946 33.1386 75.0414 33.6757C74.5083 34.1971 73.837 34.4788 73.0873 34.4788C72.3338 34.4788 71.6951 34.1971 71.1435 33.6757C70.6084 33.1386 70.3043 32.4844 70.3043 31.6691V11.6603Z" fill="#14377D"/>
<path d="M100.829 3.25439C100.829 2.45176 101.114 1.78047 101.666 1.24733C102.203 0.724892 102.868 0.444702 103.627 0.444702C104.377 0.444702 105.016 0.724892 105.55 1.24733C106.138 1.78047 106.387 2.45176 106.387 3.25439V25.1165C106.387 26.4246 106.138 27.663 105.632 28.8222C105.131 29.9941 104.462 30.9961 103.586 31.8639C102.7 32.7551 101.696 33.4249 100.525 33.9274C99.3545 34.4275 98.1009 34.6775 96.7962 34.6775C95.4511 34.6775 94.199 34.4275 93.0607 33.9274C91.8893 33.4249 90.8823 32.7551 90.013 31.8639C89.1243 30.9961 88.4544 29.9941 87.9534 28.8222C87.4499 27.663 87.1993 26.4246 87.1993 25.1165V18.2232C87.1993 16.9137 87.4499 15.6771 87.9534 14.5209C88.4544 13.3495 89.1243 12.345 90.013 11.4777C90.8823 10.5894 91.936 9.92106 93.1093 9.41565C94.2452 8.91073 95.5076 8.6641 96.7962 8.6641C97.5118 8.6641 98.2191 8.76382 98.8875 8.94915C99.5544 9.15006 100.19 9.36506 100.829 9.6506V3.25439ZM92.727 25.1165C92.727 26.2212 93.1093 27.1781 93.8662 27.9311C94.6689 28.7026 95.6243 29.1044 96.7962 29.1044C97.8849 29.1044 98.85 28.7026 99.6352 27.9311C100.443 27.1781 100.829 26.2212 100.829 25.1165V18.2232C100.829 17.1184 100.443 16.1665 99.6352 15.4106C98.8875 14.6391 97.9345 14.2363 96.7962 14.2363C96.2596 14.2363 95.7532 14.338 95.2551 14.5209C94.7516 14.7383 94.3323 15.0233 93.9499 15.4106C93.5788 15.7613 93.2767 16.1796 93.0607 16.6641C92.8072 17.151 92.727 17.6681 92.727 18.2232V25.1165Z" fill="#14377D"/>
<path d="M107.397 31.6851C107.397 30.9257 107.663 30.2807 108.193 29.752C108.728 29.211 109.394 28.9459 110.18 28.9459C110.908 28.9459 111.544 29.211 112.094 29.752C112.646 30.2807 112.926 30.9257 112.926 31.6851C112.926 32.4765 112.655 33.1386 112.119 33.6698C111.585 34.2087 110.939 34.4695 110.18 34.4695C109.428 34.4695 108.773 34.2087 108.224 33.6698C107.676 33.1386 107.397 32.4765 107.397 31.6851Z" fill="#6BB54A"/>
<path d="M171.586 10.9748H171.9C172.179 10.9748 172.264 10.716 172.264 10.5107C172.264 10.216 172.121 10.0992 171.9 10.0992H171.586V10.9748ZM171.586 12.7158H170.891V9.57628H172.179C172.654 9.57628 172.958 9.86717 172.958 10.4023C172.958 10.8031 172.795 11.1013 172.342 11.1708V11.1845C172.491 11.1922 172.945 11.2292 172.945 11.7964C172.945 11.9997 172.958 12.5874 173.021 12.7158H172.342C172.251 12.528 172.251 12.3174 172.251 12.1097C172.251 11.7346 172.306 11.4189 171.764 11.4189H171.586V12.7158ZM174.063 11.1567C174.063 9.94501 173.094 8.96872 171.924 8.96872C170.729 8.96872 169.769 9.94501 169.769 11.1567C169.769 12.3685 170.729 13.3618 171.924 13.3618C173.094 13.3618 174.063 12.3685 174.063 11.1567ZM174.556 11.1567C174.556 12.6593 173.391 13.8672 171.924 13.8672C170.452 13.8672 169.268 12.6593 169.268 11.1567C169.268 9.658 170.452 8.4599 171.924 8.4599C173.391 8.4599 174.556 9.658 174.556 11.1567Z" fill="#6BB54A"/>
<path d="M115.667 18.2069C115.667 16.9018 115.891 15.6711 116.34 14.5177C116.785 13.362 117.416 12.3497 118.224 11.4731C119.036 10.5941 119.988 9.90774 121.09 9.40671C122.194 8.9047 123.418 8.65564 124.761 8.65564C126.031 8.65564 127.211 8.89886 128.292 9.37946C129.377 9.86299 130.314 10.4993 131.107 11.2917C131.932 10.4302 132.87 9.77737 133.922 9.33277C134.973 8.87989 136.171 8.65564 137.51 8.65564C138.82 8.65564 140.034 8.9047 141.153 9.40671C142.266 9.90774 143.234 10.5941 144.044 11.4731C144.846 12.3497 145.474 13.362 145.925 14.5177C146.374 15.6711 146.598 16.9018 146.598 18.2069V31.6852C146.598 32.4767 146.32 33.1387 145.767 33.6743C145.222 34.2089 144.583 34.4696 143.86 34.4696C143.073 34.4696 142.409 34.2089 141.876 33.6743C141.339 33.1387 141.071 32.4767 141.071 31.6852V18.2069C141.071 17.1076 140.746 16.1687 140.093 15.3967C139.437 14.6233 138.578 14.2332 137.51 14.2332C136.374 14.2332 135.489 14.6233 134.849 15.3967C134.217 16.1687 133.893 17.1076 133.893 18.2069V31.6852C133.893 32.4767 133.62 33.1387 133.071 33.6743C132.521 34.2089 131.867 34.4696 131.107 34.4696C130.351 34.4696 129.705 34.2089 129.169 33.6743C128.635 33.1387 128.372 32.4767 128.372 31.6852V18.2069C128.372 17.1076 128.043 16.1687 127.391 15.3967C126.733 14.6233 125.86 14.2332 124.761 14.2332C123.655 14.2332 122.789 14.6233 122.148 15.3967C121.516 16.1687 121.197 17.1076 121.197 18.2069V31.6852C121.197 32.4767 120.917 33.1387 120.367 33.6743C119.815 34.2089 119.163 34.4696 118.408 34.4696C117.649 34.4696 117.007 34.2089 116.47 33.6743C115.934 33.1387 115.667 32.4767 115.667 31.6852V18.2069Z" fill="#6BB54A"/>
<path d="M149.696 18.2069C149.696 16.9018 149.943 15.6711 150.444 14.5177C150.94 13.362 151.632 12.3497 152.508 11.4731C153.387 10.5941 154.401 9.90774 155.556 9.40671C156.711 8.9047 157.955 8.65564 159.3 8.65564C160.606 8.65564 161.846 8.9047 163.017 9.40671C164.187 9.90774 165.21 10.5941 166.089 11.4731C166.966 12.3497 167.654 13.362 168.155 14.5177C168.649 15.6711 168.899 16.9018 168.899 18.2069V21.667C168.899 22.4589 168.638 23.1224 168.103 23.657C167.57 24.1901 166.921 24.4553 166.168 24.4553H155.27V25.1261C155.27 26.2274 155.67 27.1638 156.453 27.9401C157.252 28.7179 158.198 29.1013 159.3 29.1013C159.71 29.1013 160.18 29.0521 160.716 28.9461C161.251 28.8425 161.763 28.5005 162.239 27.9129C162.446 27.6784 162.704 27.423 163.017 27.1638C163.327 26.9103 163.658 26.7099 164.022 26.5718C164.385 26.4351 164.772 26.3772 165.183 26.3947C165.598 26.4088 166.012 26.5718 166.424 26.8836C166.976 27.2601 167.348 27.8049 167.534 28.5107C167.722 29.2112 167.542 29.9623 166.99 30.7561C166.234 31.7514 165.253 32.6547 164.048 33.4641C162.845 34.2726 161.262 34.6749 159.3 34.6749C157.992 34.6749 156.748 34.4292 155.581 33.9336C154.413 33.4345 153.387 32.7452 152.508 31.8667C151.632 30.9872 150.94 29.9725 150.444 28.8181C149.943 27.6663 149.696 26.4351 149.696 25.1261V18.2069ZM155.27 18.8777H163.376V18.2069C163.376 17.6597 163.269 17.1436 163.041 16.66C162.82 16.1799 162.526 15.7567 162.163 15.3967C161.8 15.0329 161.37 14.7507 160.875 14.543C160.373 14.3382 159.848 14.2332 159.3 14.2332C158.16 14.2332 157.204 14.6233 156.431 15.3967C155.656 16.1687 155.27 17.1076 155.27 18.2069V18.8777Z" fill="#6BB54A"/>
</g>
<defs>
<clipPath id="clip0_768_12596">
<rect width="174.3" height="42.7355" fill="white" transform="translate(0.849976 0.132202)"/>
</clipPath>
</defs>
</svg>
