<svg width="22" height="38" viewBox="0 0 22 38" fill="none" xmlns="http://www.w3.org/2000/svg">
<path d="M0.5 10.4613C0.5 9.02821 0.776302 7.67496 1.32678 6.41328C1.87246 5.12764 2.60767 4.02993 3.57605 3.08021C4.53273 2.10706 5.63155 1.37561 6.90924 0.822489C8.15766 0.269904 9.53065 0 10.9952 0C12.4305 0 13.8013 0.269904 15.0279 0.822489C16.3323 1.37561 17.4295 2.10706 18.3872 3.08021C19.3519 4.02993 20.1238 5.12764 20.6748 6.41328C21.2237 7.67496 21.5 9.02821 21.5 10.4613V27.0064C21.5 28.4347 21.2237 29.7677 20.6748 31.0682C20.1238 32.3608 19.3519 33.4521 18.3872 34.3912C17.4295 35.3234 16.3323 36.091 15.0279 36.6399C13.8013 37.1871 12.4305 37.4262 10.9952 37.4262C10.1392 37.4262 9.40767 37.1344 8.854 36.5893C8.24976 35.9984 7.97559 35.2669 7.97559 34.3912C7.97559 33.5591 8.24976 32.8676 8.854 32.2809C9.40767 31.6757 10.1392 31.4015 10.9952 31.4015C12.0988 31.4015 13.0715 30.9969 13.9307 30.2633C14.7575 29.4792 15.2691 28.5449 15.358 27.4605C14.026 28.1227 12.5545 28.4719 10.9952 28.4719C9.58974 28.4719 8.21622 28.1951 6.90924 27.6479C5.63155 27.0979 4.53273 26.3649 3.57605 25.3901C2.60767 24.4383 1.87246 23.3427 1.32678 22.056C0.776302 20.7922 0.5 19.4368 0.5 18.0096V10.4613ZM6.5435 18.0096C6.5435 18.6154 6.6931 19.1611 6.90924 19.7115C7.15413 20.2423 7.46398 20.7044 7.88402 21.0807C8.30406 21.5066 8.76297 21.7983 9.31397 22.04C9.86445 22.2365 10.4112 22.3658 10.9952 22.3658C12.1893 22.3658 13.196 21.9623 14.026 21.1771C14.9018 20.3716 15.3037 19.4038 15.399 18.2481V10.4613C15.399 9.25233 14.9955 8.21051 14.1128 7.38004C13.2551 6.54051 12.2436 6.096 10.9952 6.096C9.71432 6.096 8.6714 6.54051 7.82759 7.38004C6.96887 8.21051 6.5435 9.25233 6.5435 10.4613V18.0096Z" fill="white"/>
</svg>
